<?xml version="1.0" encoding="utf-8"?>
<!-- Generator: Adobe Illustrator 19.2.0, SVG Export Plug-In . SVG Version: 6.00 Build 0)  -->
<svg version="1.1" id="Layer_1" xmlns="http://www.w3.org/2000/svg" xmlns:xlink="http://www.w3.org/1999/xlink" x="0px" y="0px"
	 viewBox="0 0 612 792" style="enable-background:new 0 0 612 792;" xml:space="preserve">
<style type="text/css">
	.st0{fill:none;stroke:#4F4F4F;stroke-width:25;stroke-miterlimit:10;}
</style>
<g>
	<path class="st0" d="M60.2,149.1L272.7,343c10.6,9.1,23.9,12.1,37.1,12.1c13.3,0,26.5-3,37.1-12.1l212.5-193.9
		c15.9-15.1,13.3-27.2-7.9-27.2H70.8C46.9,121.9,41.7,134,60.2,149.1L60.2,149.1z"/>
	<path class="st0" d="M572.8,200.8l-233.7,203c-7.9,6.1-21.2,12.1-31.9,12.1c-10.6,0-23.9-3-31.9-12.1l-233.7-203
		C23.1,185.6,9.8,194.6,9.8,219v330.4c0,24.2,18.6,45.5,39.8,45.5H562c21.2,0,39.8-21.2,39.8-45.5V218.9
		C604.5,194.6,591.4,185.5,572.8,200.8L572.8,200.8z"/>
</g>
</svg>
