<?xml version="1.0" encoding="utf-8"?>
<!-- Generator: Adobe Illustrator 19.2.0, SVG Export Plug-In . SVG Version: 6.00 Build 0)  -->
<svg version="1.1" id="Layer_1" xmlns="http://www.w3.org/2000/svg" xmlns:xlink="http://www.w3.org/1999/xlink" x="0px" y="0px"
	 viewBox="0 0 612 792" style="enable-background:new 0 0 612 792;" xml:space="preserve">
<style type="text/css">
	.st0{fill:none;stroke:#4F4F4F;stroke-width:25;stroke-miterlimit:10;}
</style>
<g>
	<path class="st0" d="M306,28.9c-136,0-246.5,110.6-246.5,246.5c0,54.7,34.9,144,106.8,272.9c50.9,91.2,100.9,167.2,103,170.3
		l36.7,55.6l36.7-55.5c2.2-3.2,52.2-79.2,103-170.3c71.9-128.8,106.8-218.1,106.8-272.9C552.4,139.4,441.8,28.9,306,28.9L306,28.9z
		 M306,401.4c-70.5,0-127.8-57.3-127.8-127.8S235.5,145.8,306,145.8s127.8,57.3,127.8,127.8C433.8,344.4,376.5,401.4,306,401.4
		L306,401.4z"/>
</g>
</svg>
